PathFileType	4	(X/Y/Z)	C:/Users/cmwille/Documents/OptiTrack/OpenSim_Lab5_04202021/group4_jump_1.trc
DataRate	CameraRate	NumFrames	NumMarkers	Units	OrigDataRate	OrigDataStartFrame	OrigNumFrames
200	200	7	39	m	200	621	994
Frame#	Time	L.ASIS			L.Acromium			L.Ankle.Lat			L.Ankle.Med			L.Heel			L.Knee.Lat			L.Knee.Med			L.Midfoot.Lat			L.Midfoot.Sup			L.Shank.Front			L.Shank.Rear			L.Shank.Upper			L.Thigh.Front			L.Thigh.Rear			L.Thigh.Upper			L.Toe.Lat			L.Toe.Med			L.Toe.Tip			R.ASIS			R.Acromium			R.Ankle.Lat			R.Ankle.Med			R.Heel			R.Knee.Lat			R.Knee.Med			R.Midfoot.Lat			R.Midfoot.Sup			R.Shank.Front			R.Shank.Rear			R.Shank.Upper			R.Thigh.Front			R.Thigh.Rear			R.Thigh.Upper			R.Toe.Lat			R.Toe.Med			R.Toe.Tip			Sternum			Top.Head			V.Sacral			
		X1	Y1	Z1	X2	Y2	Z2	X3	Y3	Z3	X4	Y4	Z4	X5	Y5	Z5	X6	Y6	Z6	X7	Y7	Z7	X8	Y8	Z8	X9	Y9	Z9	X10	Y10	Z10	X11	Y11	Z11	X12	Y12	Z12	X13	Y13	Z13	X14	Y14	Z14	X15	Y15	Z15	X16	Y16	Z16	X17	Y17	Z17	X18	Y18	Z18	X19	Y19	Z19	X20	Y20	Z20	X21	Y21	Z21	X22	Y22	Z22	X23	Y23	Z23	X24	Y24	Z24	X25	Y25	Z25	X26	Y26	Z26	X27	Y27	Z27	X28	Y28	Z28	X29	Y29	Z29	X30	Y30	Z30	X31	Y31	Z31	X32	Y32	Z32	X33	Y33	Z33	X34	Y34	Z34	X35	Y35	Z35	X36	Y36	Z36	X37	Y37	Z37	X38	Y38	Z38	X39	Y39	Z39
621	3.105	0.281606	1.43597	0.4886	0.273062	1.95232	0.419782	0.164987	0.531969	0.332686	0.180153	0.523053	0.445289	0.0808518	0.552247	0.384047	0.241172	0.941188	0.397139	0.244688	0.908225	0.52161	0.161368	0.440002	0.312121	0.166527	0.421292	0.438653	0.271821	0.851037	0.439732	0.243296	0.774726	0.380754	0.215965	0.88968	0.382334	0.234591	1.14407	0.386526	0.121481	1.02837	0.442319	0.106803	1.10546	0.450737	0.235593	0.362288	0.324412	0.218613	0.361305	0.446382	0.507558	0.146	0.589452	0.250013	1.45127	0.807012	0.262778	1.93241	0.819971	0.186201	0.50462	0.848181	0.204376	0.511402	0.73801	0.0959373	0.518766	0.796867	0.252498	0.912281	0.829076	0.261921	0.916057	0.7046	0.17186	0.396705	0.849636	0.190487	0.407853	0.724205	0.28001	0.849314	0.775062	0.269493	0.757353	0.809715	0.235413	0.86033	0.835994	0.284593	1.13836	0.85356	0.15605	1.02818	0.832293	0.135831	1.10081	0.828472	0.229812	0.332474	0.843233	0.240597	0.351225	0.71288	0.31522	0.304999	0.754156	0.411572	1.73629	0.609241	0.615107	2.05902	0.618191	0.0985963	1.47683	0.642045
622	3.11	0.28156	1.4353	0.488282	0.272261	1.95194	0.420475	0.165364	0.531146	0.332051	0.181369	0.522031	0.444614	0.0815553	0.550961	0.383984	0.240689	0.940392	0.396444	0.246086	0.907764	0.520777	0.162067	0.439077	0.311499	0.168223	0.420253	0.437848	0.271726	0.84989	0.438487	0.243239	0.774046	0.379863	0.215447	0.888927	0.381763	0.234233	1.14325	0.386102	0.12138	1.02732	0.442094	0.106647	1.1044	0.450473	0.23677	0.361728	0.322948	0.220578	0.360454	0.445093	0.510643	0.143521	0.593917	0.250767	1.45011	0.806856	0.261952	1.93138	0.820536	0.186698	0.503407	0.848539	0.20529	0.510093	0.738484	0.0966687	0.517556	0.797011	0.253174	0.911144	0.829232	0.26261	0.914739	0.704677	0.173235	0.396438	0.850319	0.191408	0.406555	0.724916	0.280632	0.848084	0.775265	0.270167	0.75614	0.809994	0.236055	0.859152	0.836157	0.285275	1.13726	0.853467	0.156712	1.0271	0.832356	0.13656	1.0997	0.828527	0.23042	0.331366	0.844127	0.241582	0.349914	0.713853	0.316295	0.304107	0.755687	0.411277	1.73575	0.609305	0.616563	2.05333	0.619269	0.0989203	1.47572	0.642354
623	3.115	0.281493	1.43425	0.488034	0.27156	1.95133	0.421184	0.165863	0.529941	0.331514	0.182632	0.520818	0.443973	0.0823816	0.54932	0.384057	0.240239	0.939424	0.395726	0.246468	0.906681	0.519985	0.162845	0.438033	0.310633	0.169876	0.418861	0.437063	0.271836	0.84895	0.437462	0.243191	0.773131	0.378875	0.214996	0.88799	0.381112	0.233838	1.14219	0.385676	0.121217	1.02629	0.441953	0.106519	1.10325	0.450334	0.237836	0.360995	0.321578	0.222642	0.359413	0.443819	0.51395	0.140744	0.598282	0.251522	1.44855	0.806633	0.26094	1.93002	0.821195	0.187275	0.50205	0.849106	0.206199	0.508496	0.739052	0.097376	0.516129	0.797137	0.253758	0.909758	0.829371	0.263337	0.913307	0.70487	0.172877	0.394166	0.851001	0.192626	0.404932	0.72558	0.281225	0.846572	0.775578	0.270702	0.754731	0.81036	0.236561	0.857754	0.83637	0.285984	1.13589	0.853242	0.157377	1.02563	0.832306	0.13722	1.09826	0.828428	0.231265	0.330179	0.845172	0.242771	0.348299	0.714891	0.31735	0.302428	0.757083	0.41092	1.73482	0.609407	0.617939	2.04747	0.620347	0.0992876	1.47441	0.642549
624	3.12	0.280799	1.43331	0.487841	0.270815	1.95041	0.421966	0.166296	0.528561	0.331019	0.183596	0.519142	0.443139	0.0830911	0.547375	0.38415	0.23978	0.938127	0.395049	0.246885	0.905281	0.519085	0.16364	0.436633	0.310147	0.17168	0.417232	0.436336	0.271745	0.8479	0.43654	0.243069	0.771923	0.37805	0.214516	0.886516	0.380471	0.233365	1.14072	0.385168	0.121014	1.0249	0.441806	0.106324	1.10192	0.450397	0.239161	0.360013	0.320162	0.224752	0.358031	0.44263	0.517201	0.137469	0.601871	0.252233	1.44689	0.806387	0.260123	1.92844	0.821791	0.187854	0.500502	0.849625	0.207148	0.506644	0.739564	0.0981531	0.514317	0.797228	0.25437	0.908029	0.829519	0.264011	0.911494	0.705066	0.174597	0.393623	0.851713	0.19357	0.403314	0.726346	0.282021	0.844909	0.775879	0.271241	0.75309	0.810831	0.237015	0.856173	0.836649	0.286617	1.13427	0.853095	0.158002	1.02398	0.832311	0.137805	1.09659	0.828332	0.231921	0.328408	0.84612	0.243764	0.346172	0.716113	0.318494	0.300855	0.758661	0.410332	1.73363	0.609468	0.619232	2.04146	0.621424	0.0996247	1.47278	0.642765
625	3.125	0.281457	1.4316	0.487505	0.270133	1.94938	0.422745	0.166781	0.526894	0.330511	0.18487	0.517333	0.442591	0.0838528	0.545262	0.384383	0.239307	0.936644	0.394384	0.247209	0.903708	0.518272	0.164433	0.43486	0.309577	0.173374	0.41556	0.435759	0.271863	0.846404	0.43552	0.242933	0.770582	0.377094	0.213973	0.885103	0.379949	0.232886	1.13913	0.384608	0.120791	1.02327	0.441717	0.106177	1.10024	0.4504	0.240385	0.358824	0.318879	0.226988	0.356521	0.441471	0.521054	0.13437	0.605806	0.252933	1.44484	0.806217	0.259325	1.92665	0.822388	0.188404	0.498628	0.850088	0.208248	0.504633	0.740236	0.0989136	0.512231	0.797203	0.254826	0.906154	0.829694	0.264719	0.90946	0.705329	0.174761	0.391355	0.852396	0.1949	0.400895	0.727189	0.282517	0.842955	0.77623	0.272062	0.751493	0.811594	0.237359	0.85434	0.836908	0.287022	1.13238	0.853006	0.158444	1.02211	0.83214	0.138286	1.0947	0.82806	0.232772	0.326859	0.847468	0.24521	0.344099	0.717245	0.319936	0.299818	0.760958	0.41107	1.73235	0.610161	0.620435	2.0353	0.622497	0.0999674	1.47097	0.643022
626	3.13	0.280912	1.43015	0.48728	0.269441	1.94799	0.423548	0.167167	0.524883	0.330152	0.186592	0.515636	0.442095	0.0845422	0.542766	0.384649	0.238842	0.934851	0.393683	0.247575	0.901988	0.517422	0.165059	0.433137	0.309093	0.17528	0.413411	0.435046	0.271747	0.844889	0.4346	0.242659	0.768789	0.376345	0.213521	0.883197	0.37933	0.232328	1.13736	0.3841	0.120506	1.02145	0.44169	0.105972	1.0984	0.450554	0.241702	0.357324	0.317619	0.22925	0.354719	0.440326	0.525526	0.131204	0.609996	0.253669	1.44256	0.80599	0.258612	1.92458	0.823005	0.188972	0.496557	0.850698	0.209392	0.502395	0.740755	0.0997483	0.509813	0.797187	0.25513	0.903989	0.829876	0.265385	0.907112	0.705497	0.174526	0.388405	0.853183	0.196404	0.398453	0.727864	0.28307	0.840695	0.776819	0.272455	0.749136	0.812085	0.237671	0.852185	0.837132	0.287394	1.13016	0.852906	0.158864	1.01988	0.831899	0.138718	1.09251	0.827838	0.233586	0.324824	0.848757	0.247279	0.342159	0.718501	0.321327	0.297819	0.762843	0.410558	1.73055	0.610398	0.621546	2.029	0.623565	0.100322	1.46902	0.643285
627	3.135	0.281457	1.42802	0.486972	0.268534	1.94635	0.424469	0.167768	0.522741	0.32946	0.187669	0.513351	0.441379	0.0853856	0.540023	0.384981	0.238345	0.932988	0.392971	0.247913	0.899974	0.516618	0.165826	0.430854	0.308605	0.17719	0.411165	0.434497	0.271744	0.842956	0.433517	0.242408	0.766887	0.375511	0.212822	0.881341	0.378797	0.231592	1.13549	0.383565	0.120213	1.01942	0.441706	0.105733	1.09634	0.450787	0.242992	0.355691	0.316448	0.23164	0.352865	0.4393	0.530188	0.127456	0.61352	0.254365	1.44001	0.805703	0.258028	1.9222	0.823628	0.18962	0.494171	0.851225	0.210391	0.499694	0.741482	0.100646	0.507101	0.797247	0.255443	0.901606	0.830045	0.266024	0.904523	0.705727	0.175872	0.386586	0.853936	0.197707	0.395678	0.728807	0.283617	0.838335	0.777251	0.272972	0.746767	0.812701	0.237974	0.849862	0.837468	0.28773	1.12776	0.852758	0.159207	1.01744	0.831727	0.139092	1.09001	0.827454	0.234539	0.322663	0.850084	0.24898	0.339591	0.719757	0.322808	0.295594	0.764687	0.410331	1.72859	0.610685	0.622559	2.02258	0.624626	0.10071	1.46668	0.643523
